# xmcd
#
# Track frame offsets:
#	150
#	15301
#	32582
#	46381
#	59374
#	73638
#	84837
#	107446
#	122051
#	135736
#	149360
#	165305
#
# Disc length: 2425
#
# Revision: 1
# Processed by: cddbd v1.5.1PL0 Copyright (c) Steve Scherf et al.
# Submitted via: dBpowerAMP V4.0
# Normalized: r0:DSETVAR1,TDELIM( - ),TSWAP
#
DISCID=9309770c
DTITLE=Various Artist - Line up and Dance 1
DYEAR=1999
DGENRE=Country
TTITLE0=The tractors - Shufflin shortbread
TTITLE1=Alan Jackson - Chick Flicks
TTITLE2=Clay Walker - What now
TTITLE3=Jill Morris - Ready steady
TTITLE4=Brooks and Dunn - Cathy s Waltz
TTITLE5=BR5 49 - Slap City
TTITLE6=Lee Roy Parnell - Cat Walk
TTITLE7=Nino - Back Door Bop
TTITLE8=Lonestar - Ground shakin Boogie
TTITLE9=Jill Morris - It works
TTITLE10=Deborah Allen - Double dealing
TTITLE11=Pam Tillis - Blue Rose
EXTD=Dutch Country Western Dance Association www.DCWDA.nl
EXTT0=
EXTT1=
EXTT2=
EXTT3=
EXTT4=
EXTT5=
EXTT6=
EXTT7=
EXTT8=
EXTT9=
EXTT10=
EXTT11=
PLAYORDER=
